<?xml version="1.0" encoding="UTF-8" standalone="no"?>
<svg
   width="28"
   height="20"
   viewBox="0 0 28 20"
   version="1.1"
   id="svg6"
   sodipodi:docname="EU.svg"
   inkscape:version="1.4.2 (f4327f4, 2025-05-13)"
   inkscape:export-filename="EU.png"
   inkscape:export-xdpi="96"
   inkscape:export-ydpi="96"
   xmlns:inkscape="http://www.inkscape.org/namespaces/inkscape"
   xmlns:sodipodi="http://sodipodi.sourceforge.net/DTD/sodipodi-0.dtd"
   xmlns="http://www.w3.org/2000/svg"
   xmlns:svg="http://www.w3.org/2000/svg">
  <sodipodi:namedview
     id="namedview6"
     pagecolor="#ffffff"
     bordercolor="#000000"
     borderopacity="0.25"
     inkscape:showpageshadow="2"
     inkscape:pageopacity="0.0"
     inkscape:pagecheckerboard="0"
     inkscape:deskcolor="#d1d1d1"
     inkscape:zoom="1.28"
     inkscape:cx="292.1875"
     inkscape:cy="-91.015625"
     inkscape:window-width="1221"
     inkscape:window-height="607"
     inkscape:window-x="622"
     inkscape:window-y="383"
     inkscape:window-maximized="0"
     inkscape:current-layer="Symbols">
    <inkscape:page
       x="0"
       y="0"
       width="28"
       height="20"
       id="page2"
       margin="0"
       bleed="0" />
  </sodipodi:namedview>
  <!-- Generator: sketchtool 46 (44423) - http://www.bohemiancoding.com/sketch -->
  <title
     id="title1">EU</title>
  <desc
     id="desc1">Created with sketchtool.</desc>
  <defs
     id="defs6">
    <linearGradient
       x1="8.8741198"
       y1="0"
       x2="8.8741198"
       y2="17.74824"
       id="linearGradient-1"
       gradientTransform="scale(1.183216,0.84515425)"
       gradientUnits="userSpaceOnUse">
      <stop
         stop-color="#FFFFFF"
         offset="0%"
         id="stop1" />
      <stop
         stop-color="#F0F0F0"
         offset="100%"
         id="stop2" />
    </linearGradient>
    <linearGradient
       x1="8.8741198"
       y1="0"
       x2="8.8741198"
       y2="17.74824"
       id="linearGradient-2"
       gradientTransform="scale(1.183216,0.84515425)"
       gradientUnits="userSpaceOnUse">
      <stop
         stop-color="#043CAE"
         offset="0%"
         id="stop3" />
      <stop
         stop-color="#00339A"
         offset="100%"
         id="stop4" />
    </linearGradient>
    <linearGradient
       x1="10.5"
       y1="1.7928932"
       x2="10.5"
       y2="13.207107"
       id="linearGradient-3"
       gradientUnits="userSpaceOnUse">
      <stop
         stop-color="#FFD429"
         offset="0%"
         id="stop5" />
      <stop
         stop-color="#FFCC00"
         offset="100%"
         id="stop6" />
    </linearGradient>
  </defs>
  <g
     id="Symbols"
     stroke="none"
     stroke-width="1"
     fill="none"
     fill-rule="evenodd"
     transform="scale(1.3333333)">
    <g
       id="EU">
      <rect
         id="FlagBackground"
         fill="url(#linearGradient-1)"
         x="0"
         y="0"
         width="21"
         height="15"
         style="fill:url(#linearGradient-1)" />
      <rect
         id="Mask-Copy"
         fill="url(#linearGradient-2)"
         x="0"
         y="0"
         width="21"
         height="15"
         style="fill:url(#linearGradient-2)" />
      <path
         d="M 10.5,3 9.7928932,3.2071068 10,2.5 9.7928932,1.7928932 10.5,2 11.207107,1.7928932 11,2.5 11.207107,3.2071068 Z m 0,10 L 9.7928932,13.207107 10,12.5 9.7928932,11.792893 10.5,12 11.207107,11.792893 11,12.5 11.207107,13.207107 Z M 15.5,8 14.792893,8.2071068 15,7.5 14.792893,6.7928932 15.5,7 16.207107,6.7928932 16,7.5 16.207107,8.2071068 Z M 5.5,8 4.7928932,8.2071068 5,7.5 4.7928932,6.7928932 5.5,7 6.2071068,6.7928932 6,7.5 6.2071068,8.2071068 Z M 14.830127,5.5 14.12302,5.7071068 14.330127,5 14.12302,4.2928932 14.830127,4.5 15.537234,4.2928932 15.330127,5 15.537234,5.7071068 Z M 6.169873,10.5 5.4627662,10.707107 5.669873,10 5.4627662,9.2928932 6.169873,9.5 6.8769798,9.2928932 6.669873,10 6.8769798,10.707107 Z M 13,3.669873 12.292893,3.8769798 12.5,3.169873 12.292893,2.4627662 13,2.669873 13.707107,2.4627662 13.5,3.169873 13.707107,3.8769798 Z M 8,12.330127 7.2928932,12.537234 7.5,11.830127 7.2928932,11.12302 8,11.330127 8.7071068,11.12302 8.5,11.830127 8.7071068,12.537234 Z M 14.830127,10.5 14.12302,10.707107 14.330127,10 14.12302,9.2928932 14.830127,9.5 15.537234,9.2928932 15.330127,10 15.537234,10.707107 Z M 6.169873,5.5 5.4627662,5.7071068 5.669873,5 5.4627662,4.2928932 6.169873,4.5 6.8769798,4.2928932 6.669873,5 6.8769798,5.7071068 Z M 13,12.330127 12.292893,12.537234 12.5,11.830127 12.292893,11.12302 13,11.330127 13.707107,11.12302 13.5,11.830127 13.707107,12.537234 Z M 8,3.669873 7.2928932,3.8769798 7.5,3.169873 7.2928932,2.4627662 8,2.669873 8.7071068,2.4627662 8.5,3.169873 8.7071068,3.8769798 Z"
         id="Star-2"
         fill="url(#linearGradient-3)"
         style="fill:url(#linearGradient-3)" />
    </g>
  </g>
</svg>
