<?xml version="1.0" encoding="UTF-8" standalone="no"?>
<svg
   width="28"
   height="20"
   viewBox="0 0 28 20"
   version="1.1"
   id="svg6"
   sodipodi:docname="US.svg"
   xmlns:inkscape="http://www.inkscape.org/namespaces/inkscape"
   xmlns:sodipodi="http://sodipodi.sourceforge.net/DTD/sodipodi-0.dtd"
   xmlns:xlink="http://www.w3.org/1999/xlink"
   xmlns="http://www.w3.org/2000/svg"
   xmlns:svg="http://www.w3.org/2000/svg">
  <sodipodi:namedview
     id="namedview6"
     pagecolor="#ffffff"
     bordercolor="#000000"
     borderopacity="0.25"
     inkscape:showpageshadow="2"
     inkscape:pageopacity="0.0"
     inkscape:pagecheckerboard="0"
     inkscape:deskcolor="#d1d1d1">
    <inkscape:page
       x="0"
       y="0"
       width="28"
       height="20"
       id="page2"
       margin="0"
       bleed="0" />
  </sodipodi:namedview>
  <!-- Generator: sketchtool 46 (44423) - http://www.bohemiancoding.com/sketch -->
  <title
     id="title1">US</title>
  <desc
     id="desc1">Created with sketchtool.</desc>
  <defs
     id="defs6">
    <linearGradient
       x1="0.5"
       y1="0"
       x2="0.5"
       y2="1"
       id="linearGradient-1">
      <stop
         stop-color="#FFFFFF"
         offset="0%"
         id="stop1" />
      <stop
         stop-color="#F0F0F0"
         offset="100%"
         id="stop2" />
    </linearGradient>
    <linearGradient
       x1="8.8741198"
       y1="0"
       x2="8.8741198"
       y2="17.74824"
       id="linearGradient-2"
       gradientTransform="scale(1.183216,0.84515425)"
       gradientUnits="userSpaceOnUse">
      <stop
         stop-color="#D02F44"
         offset="0%"
         id="stop3" />
      <stop
         stop-color="#B12537"
         offset="100%"
         id="stop4" />
    </linearGradient>
    <linearGradient
       x1="3.968627"
       y1="0"
       x2="3.968627"
       y2="7.937254"
       id="linearGradient-3"
       gradientTransform="scale(1.1338934,0.8819171)"
       gradientUnits="userSpaceOnUse">
      <stop
         stop-color="#46467F"
         offset="0%"
         id="stop5" />
      <stop
         stop-color="#3C3C6D"
         offset="100%"
         id="stop6" />
    </linearGradient>
    <linearGradient
       inkscape:collect="always"
       xlink:href="#linearGradient-1"
       id="linearGradient6"
       x1="8.8741198"
       y1="0"
       x2="8.8741198"
       y2="17.74824"
       gradientTransform="scale(1.183216,0.84515425)"
       gradientUnits="userSpaceOnUse" />
    <linearGradient
       inkscape:collect="always"
       xlink:href="#linearGradient-1"
       id="linearGradient7"
       x1="3.803194"
       y1="1.183216"
       x2="3.803194"
       y2="7.0992956"
       gradientTransform="scale(1.183216,0.84515425)"
       gradientUnits="userSpaceOnUse" />
  </defs>
  <g
     id="Symbols"
     stroke="none"
     stroke-width="1"
     fill="none"
     fill-rule="evenodd"
     transform="scale(1.3333333)">
    <g
       id="US">
      <rect
         id="FlagBackground"
         fill="url(#linearGradient-1)"
         x="0"
         y="0"
         width="21"
         height="15"
         style="fill:url(#linearGradient6)" />
      <path
         d="M 0,0 H 21 V 1 H 0 Z M 0,2 H 21 V 3 H 0 Z M 0,4 H 21 V 5 H 0 Z M 0,6 H 21 V 7 H 0 Z M 0,8 H 21 V 9 H 0 Z m 0,2 h 21 v 1 H 0 Z m 0,2 h 21 v 1 H 0 Z m 0,2 h 21 v 1 H 0 Z"
         id="Rectangle-511"
         fill="url(#linearGradient-2)"
         style="fill:url(#linearGradient-2)" />
      <rect
         id="rect6"
         fill="url(#linearGradient-3)"
         x="0"
         y="0"
         width="9"
         height="7"
         style="fill:url(#linearGradient-3)" />
      <path
         d="M 1.5,2 C 1.2238576,2 1,1.7761424 1,1.5 1,1.2238576 1.2238576,1 1.5,1 1.7761424,1 2,1.2238576 2,1.5 2,1.7761424 1.7761424,2 1.5,2 Z m 2,0 C 3.2238576,2 3,1.7761424 3,1.5 3,1.2238576 3.2238576,1 3.5,1 3.7761424,1 4,1.2238576 4,1.5 4,1.7761424 3.7761424,2 3.5,2 Z m 2,0 C 5.2238576,2 5,1.7761424 5,1.5 5,1.2238576 5.2238576,1 5.5,1 5.7761424,1 6,1.2238576 6,1.5 6,1.7761424 5.7761424,2 5.5,2 Z m 2,0 C 7.2238576,2 7,1.7761424 7,1.5 7,1.2238576 7.2238576,1 7.5,1 7.7761424,1 8,1.2238576 8,1.5 8,1.7761424 7.7761424,2 7.5,2 Z m -5,1 C 2.2238576,3 2,2.7761424 2,2.5 2,2.2238576 2.2238576,2 2.5,2 2.7761424,2 3,2.2238576 3,2.5 3,2.7761424 2.7761424,3 2.5,3 Z m 2,0 C 4.2238576,3 4,2.7761424 4,2.5 4,2.2238576 4.2238576,2 4.5,2 4.7761424,2 5,2.2238576 5,2.5 5,2.7761424 4.7761424,3 4.5,3 Z m 2,0 C 6.2238576,3 6,2.7761424 6,2.5 6,2.2238576 6.2238576,2 6.5,2 6.7761424,2 7,2.2238576 7,2.5 7,2.7761424 6.7761424,3 6.5,3 Z m 1,1 C 7.2238576,4 7,3.7761424 7,3.5 7,3.2238576 7.2238576,3 7.5,3 7.7761424,3 8,3.2238576 8,3.5 8,3.7761424 7.7761424,4 7.5,4 Z m -2,0 C 5.2238576,4 5,3.7761424 5,3.5 5,3.2238576 5.2238576,3 5.5,3 5.7761424,3 6,3.2238576 6,3.5 6,3.7761424 5.7761424,4 5.5,4 Z m -2,0 C 3.2238576,4 3,3.7761424 3,3.5 3,3.2238576 3.2238576,3 3.5,3 3.7761424,3 4,3.2238576 4,3.5 4,3.7761424 3.7761424,4 3.5,4 Z m -2,0 C 1.2238576,4 1,3.7761424 1,3.5 1,3.2238576 1.2238576,3 1.5,3 1.7761424,3 2,3.2238576 2,3.5 2,3.7761424 1.7761424,4 1.5,4 Z m 1,1 C 2.2238576,5 2,4.7761424 2,4.5 2,4.2238576 2.2238576,4 2.5,4 2.7761424,4 3,4.2238576 3,4.5 3,4.7761424 2.7761424,5 2.5,5 Z m 2,0 C 4.2238576,5 4,4.7761424 4,4.5 4,4.2238576 4.2238576,4 4.5,4 4.7761424,4 5,4.2238576 5,4.5 5,4.7761424 4.7761424,5 4.5,5 Z m 2,0 C 6.2238576,5 6,4.7761424 6,4.5 6,4.2238576 6.2238576,4 6.5,4 6.7761424,4 7,4.2238576 7,4.5 7,4.7761424 6.7761424,5 6.5,5 Z m 1,1 C 7.2238576,6 7,5.7761424 7,5.5 7,5.2238576 7.2238576,5 7.5,5 7.7761424,5 8,5.2238576 8,5.5 8,5.7761424 7.7761424,6 7.5,6 Z m -2,0 C 5.2238576,6 5,5.7761424 5,5.5 5,5.2238576 5.2238576,5 5.5,5 5.7761424,5 6,5.2238576 6,5.5 6,5.7761424 5.7761424,6 5.5,6 Z m -2,0 C 3.2238576,6 3,5.7761424 3,5.5 3,5.2238576 3.2238576,5 3.5,5 3.7761424,5 4,5.2238576 4,5.5 4,5.7761424 3.7761424,6 3.5,6 Z m -2,0 C 1.2238576,6 1,5.7761424 1,5.5 1,5.2238576 1.2238576,5 1.5,5 1.7761424,5 2,5.2238576 2,5.5 2,5.7761424 1.7761424,6 1.5,6 Z"
         id="Oval-43"
         fill="url(#linearGradient-1)"
         style="fill:url(#linearGradient7)" />
    </g>
  </g>
</svg>
